<?xml version="1.0" standalone="no"?><!DOCTYPE svg PUBLIC "-//W3C//DTD SVG 1.1//EN" "http://www.w3.org/Graphics/SVG/1.1/DTD/svg11.dtd"><svg t="1705066091618" class="icon" viewBox="0 0 1024 1024" version="1.1" xmlns="http://www.w3.org/2000/svg" p-id="44633" xmlns:xlink="http://www.w3.org/1999/xlink" width="200" height="200"><path d="M861.8368 460.0064h-81.0752v-81.0752c0-15.7696-12.7872-28.5568-28.5568-28.5568-15.7696 0-28.5568 12.7872-28.5568 28.5568v81.0752h-81.0752c-15.7696 0-28.5568 12.7872-28.5568 28.5568 0 15.7696 12.7872 28.5568 28.5568 28.5568h81.0752v81.0624c0 15.7696 12.7872 28.5568 28.5568 28.5568 15.7696 0 28.5568-12.7872 28.5568-28.5568V517.12h81.0752c15.7696 0 28.5568-12.7872 28.5568-28.5568 0-15.7696-12.7872-28.5568-28.5568-28.5568z" p-id="44634" fill="#2c2c2c"></path><path d="M373.8112 361.0496m-127.5136 0a127.5136 127.5136 0 1 0 255.0272 0 127.5136 127.5136 0 1 0-255.0272 0Z" p-id="44635" fill="#2c2c2c"></path><path d="M557.5168 790.464c37.5808 0 64.9856-36.2112 54.08-72.192-30.9248-102.0032-125.6832-176.256-237.7984-176.256s-206.8736 74.2528-237.7984 176.256c-10.9056 35.968 16.4992 72.192 54.08 72.192h367.4368z" p-id="44636" fill="#2c2c2c"></path></svg>