<?xml version="1.0" standalone="no"?><!DOCTYPE svg PUBLIC "-//W3C//DTD SVG 1.1//EN" "http://www.w3.org/Graphics/SVG/1.1/DTD/svg11.dtd"><svg t="1705675049062" class="icon" viewBox="0 0 1362 1024" version="1.1" xmlns="http://www.w3.org/2000/svg" p-id="4375" xmlns:xlink="http://www.w3.org/1999/xlink" width="266.015625" height="200"><path d="M682.970556 201.641717c97.678855 0 190.473768 48.839428 247.453101 126.982512l39.071542 11.395866c-92.794913-156.286169-291.408585-211.63752-450.950716-125.354531l39.071542 11.395867c40.699523-16.279809 83.027027-24.419714 125.354531-24.419714z m203.497616-14.651828l21.163752 17.90779 6.511923-26.047695 24.419714-13.023847-24.419714-14.651829-6.511923-26.047694-21.163752 17.90779-27.675676-3.255962 11.395866 24.419714-11.395866 24.419714 27.675676-1.627981z m-374.435612-61.863275l-22.791733-14.651829-4.883943 27.675676-22.791733 16.279809 24.419714 11.395867 8.139904 26.047694 19.535772-19.535771h27.675675l-11.395866-24.419713 9.767885-26.047695-27.675675 3.255962z m208.381558-37.443562l-16.27981-21.163752-13.023847 24.419714-27.675676 9.767886 19.535771 17.90779v27.675676l26.047695-13.023848 26.047695 8.139905-3.255962-26.047695 16.279809-22.791733-27.675675-4.883943z m301.17647 172.565978l-22.791733-16.279809-3.255962 27.675676-22.791732 16.279809 26.047694 13.023847 9.767886 26.047695 19.535771-19.535771h27.675676l-13.023848-24.419714 8.139905-26.047695-29.303657 3.255962z m301.176471 205.125596l-1167.262321-323.968203c-29.303657-8.139905-58.607313 9.767886-66.747218 37.443561l-86.282989 310.944356c-8.139905 29.303657 9.767886 58.607313 37.443561 66.747218l1167.262321 323.968204c29.303657 8.139905 58.607313-9.767886 66.747218-37.443562l86.282989-310.944356c8.139905-29.303657-9.767886-58.607313-37.443561-66.747218z m8.139904 73.259142l-78.143084 284.896661c-6.511924 21.163752-27.675676 34.187599-50.467408 27.675676l-1142.842608-315.828299c-21.163752-6.511924-34.187599-27.675676-27.675675-50.467409l78.143084-284.896661c6.511924-21.163752 27.675676-34.187599 50.467408-27.675676l1141.214627 317.45628c22.791733 4.883943 34.187599 26.047695 29.303656 48.839428z m-646.308426-511.18601c219.777424 1.627981 410.251192 151.402226 465.602544 363.039746l29.303657 8.139905c-63.491256-275.128776-336.992051-447.694754-613.748808-385.831479-97.678855 22.791733-187.217806 73.259141-255.593005 144.890302l29.303657 8.139905c92.794913-91.166932 216.521463-140.006359 345.131955-138.378379z m117.214627 768.406996c-39.071542 16.279809-81.399046 24.419714-123.72655 24.419713-97.678855 0-190.473768-48.839428-247.4531-126.982512l-39.071543-11.395866c92.794913 156.286169 291.408585 211.63752 450.950716 125.354531l-40.699523-11.395866z m-289.780604 53.72337l-21.163752-17.90779-6.511924 26.047695-24.419714 13.023847 24.419714 14.651828 6.511924 26.047695 21.163752-17.90779 27.675675 1.627981-11.395866-24.419714 11.395866-24.419714-27.675675 3.255962z m164.426073 84.655008l16.279809 21.163752 13.023847-24.419714 27.675676-9.767885-19.535771-19.535771v-27.675676l-24.419714 13.023847-26.047695-8.139904 3.255962 26.047694-16.279809 22.791733 26.047695 6.511924z m-338.620032-170.937997l21.163752 17.90779 4.883943-26.047694 22.791733-14.651829-24.419714-14.651828-8.139905-26.047695-21.163752 17.90779-27.675675-1.627981 11.395866 26.047695-9.767886 26.047695 30.931638-4.883943z m338.620032 232.801272c-219.777424-1.627981-410.251192-151.402226-465.602544-363.039746l-29.303657-8.139904c61.863275 275.128776 336.992051 447.694754 612.120827 385.831478 97.678855-22.791733 187.217806-73.259141 255.593005-144.890302l-29.303657-8.139904c-91.166932 89.538951-214.893482 140.006359-343.503974 138.378378z m195.35771-96.050874l22.791733 14.651828 4.883943-27.675676 22.791733-16.279809-24.419714-11.395866-8.139904-26.047695-19.535772 19.535771h-27.675675l11.395866 24.419714-9.767885 26.047694 27.675675-3.255961z" fill="#b7b8be" p-id="4376"></path><path d="M281.233704 404.309062l-21.163752 79.771065c-3.255962 11.395866 1.627981 17.90779 11.395867 21.163752l148.146264 39.071542c4.883943 1.627981 9.767886 0 14.651828-1.627981 4.883943-3.255962 13.023847-19.535771 22.791733-50.467408l27.675676 17.90779c-14.651828 37.443561-24.419714 58.607313-32.559619 63.491256-8.139905 4.883943-19.535771 4.883943-32.559618 3.255962l-166.054054-43.955485c-26.047695-6.511924-34.187599-24.419714-27.675676-50.467409l40.699523-154.658187 30.931638 8.139904-9.767886 39.071542 153.030207 40.699523 17.90779-68.375198-196.985692-52.09539 8.139905-29.303656 227.917329 61.863275-34.187599 128.610493-182.333864-52.09539zM779.395866 684.321781l-30.931637-8.139905 3.255962-13.023847-148.146264-39.071543-3.255962 13.023848-30.931637-8.139905 24.419713-92.794912 210.009539 56.979332-24.419714 91.166932z m-195.35771-221.405406l-1.627981-34.187599c37.443561-19.535771 66.747218-43.955485 86.282989-73.259142l29.303656 14.651829c-4.883943 6.511924-9.767886 13.023847-16.279809 19.535771l61.863275 16.279809c-1.627981-9.767886-3.255962-19.535771-6.511924-27.675676l34.1876 3.255962c1.627981 9.767886 3.255962 21.163752 3.255962 32.559619l83.027027 22.791732-6.511924 26.047695-86.282989-22.791733-3.255962 14.651829 73.259142 19.535771-6.511924 24.419713-73.259141-19.535771-3.255962 14.651829 73.259141 19.535771-6.511923 24.419714-73.259142-19.535771-3.255962 14.651828 91.166932 24.419714-6.511924 26.047694-224.661367-60.235294 21.163752-79.771065c-14.651828 4.883943-27.675676 13.023847-39.071542 19.535771z m174.193958 174.193959l6.511924-27.675676-148.146264-39.071542-6.511923 27.675676 148.146263 39.071542z m-45.583465-130.238474l-73.259142-19.535771-3.255962 14.651828 73.259142 19.535771 3.255962-14.651828z m11.395866-37.443561l-73.259141-19.535771-3.255962 14.651828 73.259141 19.535771 3.255962-14.651828z m9.767886-39.071542l-73.259142-19.535771-3.255962 14.651828 73.259142 19.535771 3.255962-14.651828zM1031.732909 617.574563l1.627981-6.511924c-21.163752-6.511924-45.583466-11.395866-70.003179-17.90779l-1.627981-21.163752c68.375199 17.90779 126.982512 32.559618 175.821939 42.327504l6.511924 22.791733c-24.419714-4.883943-50.467409-11.395866-81.399046-17.90779l-1.627981 8.139904 120.470588 32.559619-6.511923 22.791733-83.027028-22.791733c16.279809 17.90779 43.955485 34.187599 81.399047 50.467408l-21.163752 19.535771c-11.395866-4.883943-21.163752-11.395866-29.303657-16.279809l-16.279809 61.863275-29.303657-8.139904 1.627981-8.139905-123.72655-32.559618-1.627981 8.139904-29.303656-8.139904 16.279809-61.863275c-11.395866 1.627981-24.419714 1.627981-37.443561 1.62798l-8.139905-26.047694c39.071542 1.627981 70.00318 0 92.794912-6.511924l-79.771065-21.163752 6.511924-22.791733 117.214626 27.675676z m-102.562798-29.303657l-16.279809-26.047695c14.651828-6.511924 22.791733-17.90779 27.675676-32.559618l6.511923-22.791733 118.842608 32.559619-13.023848 47.211446-96.050874-26.047694c-8.139905 11.395866-16.279809 21.163752-27.675676 27.675675z m76.515104-128.610493l3.255961-11.395866 27.675676 8.139905-3.255962 11.395866 52.09539 14.651828-6.511924 21.163752-52.095389-14.651828-1.627981 8.139905 43.955485 11.395866-4.883943 19.535771-118.842607-32.559618 4.883942-19.535771 45.583466 13.023847 1.627981-8.139905-55.351351-14.651828 6.511923-21.163752 56.979333 14.651828z m76.515103 278.384738l3.255962-9.767885-123.72655-32.559619-3.255962 9.767886 123.72655 32.559618z m-113.958665-206.753577l-1.627981 4.883943c0 1.627981-1.627981 4.883943-1.62798 8.139904l22.791732 6.511924 3.255962-13.023847-22.791733-6.511924z m122.09857 180.705882l3.255961-9.767885-123.72655-32.559619-3.255962 9.767886 123.726551 32.559618z m-107.446741-60.235294l37.443561 9.767886 6.511924-22.791733-8.139905-1.627981c-11.395866 6.511924-22.791733 11.395866-35.81558 14.651828z m47.211446-89.538951l3.255962-13.023847-21.163752-4.883943-3.255962 13.023848 21.163752 4.883942z m32.559619 87.91097l-8.139905-1.627981-6.511923 22.791733 34.187599 9.767886c-8.139905-11.395866-14.651828-21.163752-19.535771-30.931638z m126.982512-146.518283l-6.511924 21.163752c0 3.255962 0 4.883943 1.627981 4.883943l22.791733 6.511924-4.883943 19.535771-29.303656-8.139905c-13.023847-3.255962-17.90779-11.395866-14.651829-22.791733l1.627981-6.511923-34.187599-9.767886c-1.627981 8.139905-4.883943 13.023847-8.139905 16.279809-3.255962 3.255962-11.395866 4.883943-22.791733 6.511924l96.050875 26.047695-4.883943 17.90779c-8.139905 8.139905-17.90779 14.651828-30.931638 17.90779 11.395866 4.883943 24.419714 11.395866 39.071543 14.651828l-17.907791 17.90779c-24.419714-8.139905-42.327504-17.90779-56.979332-27.675675-14.651828 0-30.931638-1.627981-50.467408-3.255962l-8.139905-22.791733c13.023847 1.627981 24.419714 3.255962 34.187599 3.255962-6.511924-9.767886-11.395866-19.535771-13.023847-29.303657l-8.139905-1.627981 4.883943-17.90779 11.395867 3.255962-13.023848-17.90779c9.767886-3.255962 16.279809-6.511924 21.163752-9.767886 3.255962-4.883943 6.511924-11.395866 9.767886-21.163752l81.399046 22.791733z m-63.491256 73.259142c13.023847-1.627981 24.419714-3.255962 32.559618-8.139905l-52.095389-14.651828c3.255962 8.139905 9.767886 14.651828 19.535771 22.791733z" fill="#b7b8be" p-id="4377"></path></svg>