<?xml version="1.0" standalone="no"?><!DOCTYPE svg PUBLIC "-//W3C//DTD SVG 1.1//EN" "http://www.w3.org/Graphics/SVG/1.1/DTD/svg11.dtd"><svg t="1705137349312" class="icon" viewBox="0 0 1024 1024" version="1.1" xmlns="http://www.w3.org/2000/svg" p-id="4722" xmlns:xlink="http://www.w3.org/1999/xlink" width="200" height="200"><path d="M512 32a480 480 0 1 1 0 960 480 480 0 0 1 0-960zM512 128a384 384 0 1 0 0 768A384 384 0 0 0 512 128z m216.832 336a16 16 0 0 1 15.168 15.232v65.6a16 16 0 0 1-15.232 15.168H295.168a16 16 0 0 1-15.168-15.104V479.168a16 16 0 0 1 15.232-15.168z" fill="#a05939" p-id="4723"></path></svg>